<?xml version="1.0" standalone="no"?>
<!DOCTYPE svg PUBLIC "-//W3C//DTD SVG 20010904//EN"
 "http://www.w3.org/TR/2001/REC-SVG-20010904/DTD/svg10.dtd">
<svg version="1.0" xmlns="http://www.w3.org/2000/svg"
 width="700.000000pt" height="700.000000pt" viewBox="0 0 700.000000 700.000000"
 preserveAspectRatio="xMidYMid meet">
<metadata>
Created by potrace 1.11, written by Peter Selinger 2001-2013
</metadata>
<g transform="translate(0.000000,700.000000) scale(0.100000,-0.100000)"
fill="#000000" stroke="none">
<path d="M241 6980 c-91 -33 -160 -95 -207 -187 l-29 -58 0 -2645 0 -2645 33
-67 c39 -81 112 -149 192 -180 l55 -22 1105 -2 c608 -1 1111 -3 1117 -3 18 -1
17 -581 0 -582 -7 0 -118 -2 -247 -3 -233 -2 -235 -3 -287 -29 -63 -33 -96
-66 -130 -132 -25 -47 -26 -59 -28 -209 -2 -148 0 -160 19 -183 l21 -23 1620
-1 c891 0 1630 0 1642 1 12 0 32 10 43 22 21 22 21 31 18 188 -3 137 -7 171
-22 200 -35 67 -77 109 -134 137 -57 28 -58 28 -282 30 -124 1 -234 2 -246 2
-20 1 -20 6 -20 171 l0 170 1037 0 c635 0 1047 4 1063 10 44 16 59 52 60 145
l0 84 57 10 c154 27 278 153 297 303 4 29 7 1223 7 2653 l0 2600 -28 57 c-36
74 -107 144 -177 177 l-55 26 -3220 2 c-3159 2 -3221 2 -3274 -17z"/>
</g>
</svg>
